<svg width="40" height="41" viewBox="0 0 40 41" fill="none" xmlns="http://www.w3.org/2000/svg">
<path d="M32.8873 28.2723L28.1265 28.2724C26.9121 30.1633 25.2934 31.7638 23.3906 32.9609H32.8873V36.4754L39.9967 30.6172L32.8873 24.7578V28.2723Z" fill="#494B51"/>
<path d="M15.4015 32.9566C22.4791 32.9082 28.2031 27.1595 28.2031 20.0703C28.2031 13.3468 23.0536 7.83156 16.4844 7.23875V3.66406L9.45312 9.52344L16.4844 15.3816V11.9856C20.4492 12.5604 23.5156 15.9488 23.5156 20.0703C23.5156 24.593 19.8352 28.2734 15.3125 28.2734H0V32.9609H15.4068C15.4045 32.9595 15.4038 32.958 15.4015 32.9566Z" fill="#494B51"/>
<path d="M9.58977 25.93C8.06383 24.4394 7.10938 22.3669 7.10938 20.0706C7.10938 17.347 8.45835 14.9459 10.5081 13.4532L6.82555 10.3848C4.13148 12.7474 2.42188 16.2059 2.42188 20.0706C2.42188 22.1882 2.96562 24.1675 3.87038 25.93H9.58977Z" fill="#494B51"/>
</svg>
