<svg width="44" height="45" viewBox="0 0 44 45" fill="none" xmlns="http://www.w3.org/2000/svg">
<g clip-path="url(#clip0_528_4415)">
<path fill-rule="evenodd" clip-rule="evenodd" d="M35.037 28.4729H41.1017V44.9594H35.037V28.4729ZM12.1013 44.9594H18.1664V38.0813H12.1013V44.9594ZM0.632812 44.9594H6.69805V41.4994H0.632812V44.9594ZM43.2543 9.23115C42.9591 8.51475 42.1297 8.16836 41.4127 8.46289C40.8802 8.68174 36.5076 10.5143 36.3244 10.3614C35.3078 9.51592 33.6288 7.9875 32.3473 7.69004C30.7305 7.31426 25.9449 9.87529 24.9712 11.0374C24.3262 11.8065 21.1837 15.4149 21.0125 15.9187C20.7836 16.5923 21.0991 17.3339 21.7402 17.6404C22.4654 17.9873 23.1276 17.5234 23.6095 16.9942C24.775 15.6495 26.0218 14.2886 27.1305 12.9056C27.1825 12.84 27.8994 12.3834 28.0029 12.3834C28.1175 12.3834 28.2052 12.4897 28.1801 12.6033C27.5296 15.5439 27.6287 18.5104 27.521 21.4966C27.4954 22.2062 27.4711 22.9205 27.3809 23.6255C27.3256 24.0717 24.8021 29.632 24.4119 30.5379C24.1039 31.2525 24.4383 32.0898 25.1534 32.3964C25.8596 32.6992 26.6894 32.3749 27.0025 31.6748L30.4939 24.6424L30.5044 24.6124C30.7803 23.8298 30.5538 22.6585 30.812 21.8947C30.8394 21.8139 30.8978 21.7717 30.9837 21.7723C32.6737 21.7838 34.3699 21.8489 36.051 22.0285C36.3109 22.0562 37.2255 24.8396 37.3758 25.2353C37.6519 25.9614 38.4676 26.3336 39.1956 26.0592C39.9246 25.7845 40.2958 24.9653 40.0189 24.2366C39.6627 23.2998 38.8401 19.5816 37.4005 19.3569C36.0575 19.1476 34.6865 19.062 33.3297 19.0053C33.2326 19.0012 33.1559 18.9214 33.1559 18.8241C33.1559 16.8166 33.2298 14.2878 33.9717 12.3922C33.993 12.3381 34.0394 12.2977 34.0956 12.2829C34.2677 12.2384 35.0708 12.9939 35.2445 13.1378C35.65 13.4736 36.207 13.5544 36.6877 13.3543C38.6176 12.5981 40.5716 11.863 42.4866 11.0731C43.2075 10.7756 43.5514 9.95283 43.2543 9.23115ZM23.569 44.9594H29.6338V34.716H23.569V44.9594ZM33.3219 5.98184C34.7236 5.98184 35.8639 4.84248 35.8639 3.44043C35.8639 2.03867 34.7237 0.898438 33.3219 0.898438C31.9199 0.898438 30.7808 2.03887 30.7812 3.44043C30.7812 4.8416 31.9206 5.98184 33.3219 5.98184ZM14.533 25.5634C14.5916 25.6214 14.6033 25.7108 14.5624 25.7822C11.5608 31.0037 5.93525 33.8272 0.821193 36.5865C7.81357 35.5099 12.6299 34.6465 17.405 28.6803C17.4369 28.6402 17.4844 28.6155 17.5356 28.6126C17.7062 28.6024 19.0766 30.0495 19.2972 30.2672L20.413 22.4584L12.6551 23.7091L14.533 25.5634Z" fill="#494B51"/>
</g>
<defs>
<clipPath id="clip0_528_4415">
<rect width="44" height="45" fill="white"/>
</clipPath>
</defs>
</svg>
