<svg width="40" height="41" viewBox="0 0 40 41" fill="none" xmlns="http://www.w3.org/2000/svg">
<path d="M14.0276 26.0203C12.0859 27.5453 10.8359 29.912 10.8359 32.5703V35.0703H5.83594C4.4526 35.0703 3.33594 33.9536 3.33594 32.5703V30.9036C3.33594 27.6786 5.94427 25.0703 9.16927 25.0703H10.8359C12.0193 25.0703 13.1109 25.4203 14.0276 26.0203Z" fill="#494B51"/>
<path d="M30 25.0703C32.0711 25.0703 33.75 23.3914 33.75 21.3203C33.75 19.2492 32.0711 17.5703 30 17.5703C27.9289 17.5703 26.25 19.2492 26.25 21.3203C26.25 23.3914 27.9289 25.0703 30 25.0703Z" fill="#494B51"/>
<path d="M10 25.0703C12.0711 25.0703 13.75 23.3914 13.75 21.3203C13.75 19.2492 12.0711 17.5703 10 17.5703C7.92893 17.5703 6.25 19.2492 6.25 21.3203C6.25 23.3914 7.92893 25.0703 10 25.0703Z" fill="#494B51"/>
<path d="M36.6682 30.9036V32.5703C36.6682 33.9536 35.5516 35.0703 34.1682 35.0703H29.1682V32.5703C29.1682 29.912 27.9182 27.5453 25.9766 26.0203C26.8932 25.4203 27.9849 25.0703 29.1682 25.0703H30.8349C34.0599 25.0703 36.6682 27.6786 36.6682 30.9036Z" fill="#494B51"/>
<path d="M19.9974 25.903C22.5287 25.903 24.5807 23.851 24.5807 21.3197C24.5807 18.7884 22.5287 16.7363 19.9974 16.7363C17.4661 16.7363 15.4141 18.7884 15.4141 21.3197C15.4141 23.851 17.4661 25.903 19.9974 25.903Z" fill="#494B51"/>
<path d="M20.8333 25.9043H19.1667C15.4908 25.9043 12.5 28.8951 12.5 32.571V35.071C12.5 36.4493 13.6217 37.571 15 37.571H25C26.3783 37.571 27.5 36.4493 27.5 35.071V32.571C27.5 28.8951 24.5092 25.9043 20.8333 25.9043Z" fill="#494B51"/>
<path d="M32.0835 13.9744L30.0726 14.6894C29.5018 14.8919 28.906 14.4594 28.9226 13.8535L28.981 11.7202L27.6793 10.0285C27.3101 9.54854 27.5376 8.84771 28.1185 8.67604L30.166 8.07271L31.3726 6.31188C31.7151 5.81271 32.4518 5.81271 32.7943 6.31188L34.001 8.07271L36.0485 8.67604C36.6293 8.84688 36.8568 9.54854 36.4876 10.0285L35.186 11.7202L35.2443 13.8535C35.261 14.4585 34.6643 14.8919 34.0943 14.6894L32.0835 13.9744Z" fill="#494B51"/>
<path d="M7.91939 13.9744L5.90856 14.6894C5.33773 14.8919 4.7419 14.4594 4.75856 13.8535L4.8169 11.7202L3.51523 10.0285C3.14606 9.54854 3.37356 8.84771 3.9544 8.67604L6.0019 8.07271L7.20856 6.31188C7.55106 5.81271 8.28773 5.81271 8.63023 6.31188L9.83689 8.07271L11.8844 8.67604C12.4652 8.84688 12.6927 9.54854 12.3236 10.0285L11.0219 11.7202L11.0802 13.8535C11.0969 14.4585 10.5002 14.8919 9.93023 14.6894L7.91939 13.9744Z" fill="#494B51"/>
<path d="M19.9965 12.0977L17.6124 12.9452C16.9357 13.1861 16.229 12.6719 16.249 11.9544L16.3182 9.42524L14.7749 7.4194C14.3374 6.85023 14.6074 6.0194 15.2957 5.81607L17.7232 5.10023L19.154 3.01273C19.5599 2.42023 20.434 2.42023 20.8399 3.01273L22.2707 5.10023L24.6982 5.81607C25.3865 6.0194 25.6565 6.85023 25.219 7.4194L23.6757 9.42524L23.7449 11.9544C23.7649 12.6719 23.0574 13.1861 22.3815 12.9452L19.9965 12.0977Z" fill="#494B51"/>
</svg>
