<svg xmlns="http://www.w3.org/2000/svg" data-name="Layer 1" viewBox="0 0 512 512" id="save-time"><rect width="52.309" height="131.511" x="61.668" y="308.845" transform="rotate(-9.922 87.82 374.601)"></rect><path d="M145.34 407.937a44.608 44.608 0 0 1 31.99-9.966L283.607 406h.336a96.4 96.4 0 0 0 56.1-18.468L461.271 268.7a26.878 26.878 0 0 0-32.107.809l-.144.111-60.338 45.118a52.076 52.076 0 0 1 3.281 11.153 7 7 0 0 1-5.69 8.1l-97.912 17.127a7.081 7.081 0 0 1-1.215.1 7 7 0 0 1-1.2-13.9l90.379-15.809a38.02 38.02 0 0 0-42.088-24.067l-59.564 10.42a79.355 79.355 0 0 1-35.188-1.834l-6.662-1.895a93.235 93.235 0 0 0-92.3 24.345l15.252 87.2zM277.039 255.387a93.633 93.633 0 1 0-93.633-93.633A93.739 93.739 0 0 0 277.039 255.387zM264 111.4a7 7 0 1 1 14 0V164h38.2a7 7 0 0 1 0 14H271.445c-3.867 0-7.445-3.985-7.445-7.852z"></path></svg>